<?xml version="1.0" encoding="utf-8"?>
<!-- Generator: Adobe Illustrator 16.0.0, SVG Export Plug-In . SVG Version: 6.00 Build 0)  -->
<!DOCTYPE svg PUBLIC "-//W3C//DTD SVG 1.1//EN" "http://www.w3.org/Graphics/SVG/1.1/DTD/svg11.dtd">
<svg version="1.1" id="Слой_1" xmlns="http://www.w3.org/2000/svg" xmlns:xlink="http://www.w3.org/1999/xlink" x="0px" y="0px"
	 width="31.167px" height="31.167px" viewBox="58.625 -29.917 31.167 31.167" enable-background="new 58.625 -29.917 31.167 31.167"
	 xml:space="preserve">
<text transform="matrix(1 0 0 1 70.8784 -10.8105)" fill="#CED0D6" font-family="'MyriadPro-Bold'" font-size="12">4</text>
<g>
	<path fill="#CED0D6" d="M86.958-29.417c1.287,0,2.335,1.047,2.335,2.334v25.498c0,1.287-1.048,2.335-2.335,2.335H61.46
		c-1.287,0-2.335-1.048-2.335-2.335v-25.498c0-1.287,1.048-2.334,2.335-2.334H86.958 M86.958-29.917H61.46
		c-1.56,0-2.835,1.275-2.835,2.834v25.498c0,1.56,1.275,2.835,2.835,2.835h25.498c1.56,0,2.835-1.275,2.835-2.835v-25.498
		C89.793-28.641,88.518-29.917,86.958-29.917L86.958-29.917z"/>
</g>
</svg>
