<?xml version="1.0" encoding="utf-8"?>
<!-- Generator: Adobe Illustrator 16.0.0, SVG Export Plug-In . SVG Version: 6.00 Build 0)  -->
<!DOCTYPE svg PUBLIC "-//W3C//DTD SVG 1.1//EN" "http://www.w3.org/Graphics/SVG/1.1/DTD/svg11.dtd">
<svg version="1.1" id="Слой_1" xmlns="http://www.w3.org/2000/svg" xmlns:xlink="http://www.w3.org/1999/xlink" x="0px" y="0px"
	 width="31.167px" height="31.168px" viewBox="-0.889 29.597 31.167 31.168" enable-background="new -0.889 29.597 31.167 31.168"
	 xml:space="preserve">
<text transform="matrix(1 0 0 1 11.3638 48.7026)" fill="#CED0D6" font-family="'MyriadPro-Bold'" font-size="12">8</text>
<g>
	<path fill="#CED0D6" d="M27.444,30.097c1.287,0,2.335,1.047,2.335,2.334v25.498c0,1.287-1.048,2.336-2.335,2.336H1.946
		c-1.287,0-2.335-1.049-2.335-2.336V32.431c0-1.287,1.048-2.334,2.335-2.334H27.444 M27.444,29.597H1.946
		c-1.56,0-2.835,1.275-2.835,2.834v25.498c0,1.561,1.275,2.836,2.835,2.836h25.498c1.56,0,2.835-1.275,2.835-2.836V32.431
		C30.279,30.873,29.003,29.597,27.444,29.597L27.444,29.597z"/>
</g>
</svg>
