<?xml version="1.0" encoding="utf-8"?>
<!-- Generator: Adobe Illustrator 16.0.0, SVG Export Plug-In . SVG Version: 6.00 Build 0)  -->
<!DOCTYPE svg PUBLIC "-//W3C//DTD SVG 1.1//EN" "http://www.w3.org/Graphics/SVG/1.1/DTD/svg11.dtd">
<svg version="1.1" id="Слой_1" xmlns="http://www.w3.org/2000/svg" xmlns:xlink="http://www.w3.org/1999/xlink" x="0px" y="0px"
	 width="31.167px" height="31.167px" viewBox="-119.917 -29.917 31.167 31.167"
	 enable-background="new -119.917 -29.917 31.167 31.167" xml:space="preserve">
<g>
	<text transform="matrix(1 0 0 1 -107.6631 -10.8105)" fill="#CED0D6" font-family="'MyriadPro-Bold'" font-size="12">1</text>
</g>
<g>
	<path fill="#CED0D6" d="M-91.584-29.417c1.287,0,2.335,1.047,2.335,2.334v25.498c0,1.287-1.048,2.335-2.335,2.335h-25.498
		c-1.287,0-2.334-1.048-2.334-2.335v-25.498c0-1.287,1.047-2.334,2.334-2.334H-91.584 M-91.584-29.917h-25.498
		c-1.559,0-2.834,1.275-2.834,2.834v25.498c0,1.56,1.275,2.835,2.834,2.835h25.498c1.56,0,2.835-1.275,2.835-2.835v-25.498
		C-88.749-28.641-90.024-29.917-91.584-29.917L-91.584-29.917z"/>
</g>
</svg>
