<?xml version="1.0" encoding="utf-8"?>
<!-- Generator: Adobe Illustrator 16.0.0, SVG Export Plug-In . SVG Version: 6.00 Build 0)  -->
<!DOCTYPE svg PUBLIC "-//W3C//DTD SVG 1.1//EN" "http://www.w3.org/Graphics/SVG/1.1/DTD/svg11.dtd">
<svg version="1.1" id="Слой_1" xmlns="http://www.w3.org/2000/svg" xmlns:xlink="http://www.w3.org/1999/xlink" x="0px" y="0px"
	 width="31.167px" height="31.167px" viewBox="0 0 31.167 31.167" enable-background="new 0 0 31.167 31.167" xml:space="preserve">
<g>
	<g>
		<path fill="#6C707E" d="M15.526,11.041c0-0.395-0.067-0.764-0.201-1.096c-0.134-0.336-0.333-0.631-0.59-0.876
			c-0.255-0.242-0.567-0.434-0.927-0.571c-0.358-0.135-0.762-0.204-1.2-0.204H9.815c-0.356,0-0.609,0.098-0.75,0.291
			C8.943,8.754,8.88,8.975,8.88,9.24v7.056c0,0.171,0.053,0.3,0.152,0.379c0.089,0.075,0.207,0.111,0.36,0.111h1.197
			c0.179,0,0.295-0.029,0.371-0.091c0.137-0.101,0.152-0.276,0.152-0.399v-2.406h1.266c0.677,0,1.231-0.109,1.647-0.325
			c0.418-0.214,0.743-0.479,0.966-0.787c0.222-0.304,0.368-0.625,0.437-0.952C15.494,11.514,15.526,11.257,15.526,11.041z
			 M13.236,11.155c0,0.244-0.069,0.442-0.212,0.605c-0.132,0.151-0.356,0.228-0.667,0.228h-1.243v-1.666h1.231
			c0.188,0,0.342,0.028,0.455,0.083c0.114,0.056,0.204,0.125,0.267,0.204c0.065,0.083,0.108,0.167,0.13,0.258
			C13.223,10.972,13.236,11.069,13.236,11.155z"/>
		<path fill="#6C707E" d="M22.152,14.5c-0.085-0.075-0.205-0.109-0.389-0.109h-1.196c-0.162,0-0.283,0.037-0.375,0.118
			c-0.092,0.084-0.138,0.209-0.138,0.372v2.589h-2.59v-2.589c0-0.064,0-0.261-0.135-0.38c-0.085-0.075-0.205-0.109-0.389-0.109
			h-1.208c-0.149,0-0.27,0.036-0.358,0.109c-0.102,0.084-0.153,0.212-0.153,0.38v7.501c0,0.171,0.053,0.3,0.151,0.379
			c0.09,0.075,0.207,0.111,0.36,0.111h1.208c0.186,0,0.307-0.034,0.386-0.107c0.123-0.105,0.138-0.27,0.138-0.383v-2.941h2.59v2.941
			c0,0.165,0.047,0.291,0.14,0.373c0.087,0.079,0.209,0.117,0.373,0.117h1.196c0.125,0,0.282-0.013,0.386-0.107
			c0.123-0.105,0.138-0.27,0.138-0.383v-7.501C22.287,14.816,22.287,14.62,22.152,14.5z"/>
	</g>
</g>
</svg>
